<svg width="36" height="35" viewBox="0 0 36 35" fill="none" xmlns="http://www.w3.org/2000/svg">
<path d="M16.6875 17.9448C17.2969 17.707 18.0914 17.7033 18.7072 17.9354L33.1317 23.3726C34.1109 23.7417 34.256 24.5416 33.4309 25.0214L19.2967 33.2399C18.5806 33.6564 17.4194 33.6564 16.7033 33.2399L2.5344 25.0012C1.71779 24.5264 1.85018 23.7362 2.80904 23.3619L16.6875 17.9448Z" fill="white" stroke="whtie"/>
<path d="M16.9826 13.8425C17.5987 13.6037 18.4013 13.6037 19.0174 13.8425L33.1796 19.3336C34.1424 19.7069 34.2772 20.499 33.459 20.9748L19.2967 29.2097C18.5806 29.6261 17.4194 29.6261 16.7033 29.2097L2.54102 20.9748C1.72278 20.499 1.8576 19.7069 2.82035 19.3336L16.9826 13.8425Z" fill="black" stroke="white"/>
<path d="M17.2444 8.97948C17.8742 8.73132 18.702 8.73501 19.3252 8.98877L33.2627 14.6645C34.1966 15.0448 34.3136 15.8232 33.5075 16.2919L19.2967 24.555C18.5806 24.9714 17.4194 24.9714 16.7033 24.555L2.52498 16.3108C1.7107 15.8373 1.83964 15.0497 2.79292 14.6741L17.2444 8.97948Z" fill="white" stroke="white"/>
<circle cx="17.6861" cy="9.14797" r="8.64797" fill="black" stroke="white"/>
<path d="M18.4484 14.6368V13.1883C19.7634 12.8834 20.7354 11.8331 20.7354 10.571C20.7354 9.08868 19.3822 7.87742 17.7242 7.86048C16.9523 7.852 16.2662 7.35225 16.1804 6.66616C16.0661 5.853 16.7808 5.14996 17.686 5.14996C18.5246 5.14996 19.2107 5.75983 19.2107 6.50522H20.7354C20.7354 5.24314 19.7634 4.19282 18.4484 3.88788V2.43945H16.9237V3.88788C15.6087 4.19282 14.6367 5.24314 14.6367 6.50522C14.6367 7.98753 15.9899 9.19879 17.6479 9.21573C18.4198 9.2242 19.1059 9.72395 19.1916 10.41C19.306 11.2317 18.5818 11.9262 17.6765 11.9262C16.838 11.9262 16.1519 11.3164 16.1519 10.571H14.6367C14.6367 11.8331 15.6087 12.8834 16.9237 13.1883V14.6368H18.4484Z" fill="white"/>
</svg>
