<svg width="36" height="36" viewBox="0 0 36 36" fill="none" xmlns="http://www.w3.org/2000/svg">
<path d="M11.5125 13.0125H15.6V10.8L11.5125 11.0625L11.2125 9.75L8.28748 12L11.2125 14.2875L11.5125 13.0125Z" fill="white"/>
<path d="M12.3375 18.525L8.25001 18.525L8.25001 20.7375L12.3375 20.475L12.6375 21.7875L15.5625 19.5375L12.6375 17.25L12.3375 18.525Z" fill="white"/>
<circle cx="25.2375" cy="16.1625" r="7.1625" fill="black" strok="white"/>
<path d="M25.2 25.2C24.8687 25.2 24.6 25.4687 24.6 25.8V27.6H6C5.66865 27.6 5.4 27.8687 5.4 28.2C5.4 28.5313 5.66865 28.8 6 28.8H24.6V33C24.6 33.994 23.794 34.8 22.8 34.8H6C5.00596 34.8 4.2 33.994 4.2 33V3C4.2 2.00596 5.00596 1.2 6 1.2H22.8C23.794 1.2 24.6 2.00596 24.6 3V6.6C24.6 6.93135 24.8687 7.2 25.2 7.2C25.5313 7.2 25.8 6.93135 25.8 6.6V3C25.8 1.34326 24.4567 0 22.8 0H6C4.34326 0 3 1.34326 3 3V33C3 34.6567 4.34326 36 6 36H22.8C24.4567 36 25.8 34.6567 25.8 33V25.8C25.8 25.4687 25.5313 25.2 25.2 25.2Z" fill="white"/>
<path d="M16.8 31.2C17.1314 31.2 17.4 30.9313 17.4 30.6C17.4 30.2687 17.1314 30 16.8 30H12C11.3374 30 10.8 30.5373 10.8 31.2V32.4C10.8 33.0627 11.3374 33.6 12 33.6H16.8C17.1314 33.6 17.4 33.3313 17.4 33C17.4 32.6687 17.1314 32.4 16.8 32.4H12V31.2H16.8Z" fill="white"/>
<path d="M25.2001 19.2001C24.5374 19.2001 24 18.6627 24 18.0001C24 17.6687 23.7314 17.4001 23.4 17.4001C23.0687 17.4001 22.8 17.6687 22.8 18.0001C22.8036 19.0917 23.5433 20.0432 24.6 20.316V21.0001C24.6 21.3314 24.8687 21.6001 25.2001 21.6001C25.5314 21.6001 25.8001 21.3314 25.8001 21.0001V20.316C26.9555 20.0022 27.7032 18.8848 27.552 17.6971C27.4008 16.5091 26.3974 15.6144 25.2001 15.6001C24.5374 15.6001 24 15.0627 24 14.4001C24 13.7374 24.5374 13.2 25.2001 13.2C25.8627 13.2 26.4001 13.7374 26.4001 14.4001C26.4001 14.7314 26.6687 15.0001 27.0001 15.0001C27.3314 15.0001 27.6001 14.7314 27.6001 14.4001C27.5965 13.3084 26.8568 12.3569 25.8001 12.0841V11.4C25.8001 11.0687 25.5314 10.8 25.2001 10.8C24.8687 10.8 24.6 11.0687 24.6 11.4V12.0841C23.4446 12.3979 22.6969 13.5153 22.8481 14.703C22.9993 15.891 24.0027 16.7857 25.2001 16.8001C25.8627 16.8001 26.4001 17.3374 26.4001 18.0001C26.4001 18.6627 25.8627 19.2001 25.2001 19.2001Z" fill="white"/>
<path d="M25.2 8.40003C22.6664 8.39885 20.2901 9.62844 18.8276 11.6971C17.3648 13.7657 16.9983 16.4159 17.8441 18.8039C17.9549 19.1171 18.2988 19.2812 18.612 19.1701C18.9252 19.0591 19.0889 18.7152 18.9779 18.402C18.7265 17.695 18.5985 16.9503 18.6 16.2C18.6011 13.0515 20.8259 10.3418 23.9144 9.72864C27.0026 9.11545 30.0943 10.769 31.2984 13.6782C32.5025 16.5876 31.4839 19.9421 28.8653 21.6908C26.2468 23.4396 22.7578 23.095 20.5321 20.8679C20.2939 20.6643 19.9391 20.6778 19.7174 20.8995C19.4959 21.121 19.4821 21.4761 19.686 21.714C22.1821 24.2115 26.0446 24.7204 29.1026 22.9553C32.1603 21.1899 33.6512 17.5905 32.7366 14.18C31.8222 10.7696 28.7308 8.39885 25.2 8.40003Z" fill="white"/>
<path d="M11.3999 11.4H15.5999C15.9313 11.4 16.1999 11.1313 16.1999 10.8C16.1999 10.4686 15.9313 10.2 15.5999 10.2H11.9999V9.59997C11.9994 9.36911 11.8664 9.15935 11.6581 9.06003C11.4515 8.96189 11.2072 8.99001 11.0279 9.1321L8.02788 11.5321C7.88608 11.6458 7.80347 11.818 7.80347 12C7.80347 12.1819 7.88608 12.3542 8.02788 12.4678L11.0279 14.8678C11.1336 14.9528 11.2646 14.9991 11.3999 15C11.4896 15.0014 11.5781 14.9809 11.6581 14.9399C11.8664 14.8406 11.9994 14.6308 11.9999 14.4V13.8H15.5999C15.9313 13.8 16.1999 13.5313 16.1999 13.2C16.1999 12.8686 15.9313 12.6 15.5999 12.6H11.3999C11.0865 12.5991 10.8251 12.8396 10.8 13.1519L9.36001 12L10.8 10.848C10.8251 11.1603 11.0865 11.4009 11.3999 11.4Z" fill="white"/>
<path d="M12.3419 22.1399C12.4219 22.1809 12.5104 22.2014 12.6001 22.1999C12.7354 22.199 12.8664 22.1528 12.9721 22.0678L15.9721 19.6678C16.1139 19.5541 16.1965 19.3819 16.1965 19.1999C16.1965 19.018 16.1139 18.8457 15.9721 18.7321L12.9721 16.3321C12.7928 16.19 12.5485 16.1618 12.3419 16.26C12.1336 16.3593 12.0006 16.5691 12.0001 16.7999V17.3999H8.40005C8.0687 17.3999 7.80005 17.6686 7.80005 17.9999C7.80005 18.3313 8.0687 18.5999 8.40005 18.5999H12.6001C12.9135 18.6008 13.1749 18.3603 13.2001 18.048L14.64 19.1999L13.2001 20.3519C13.1749 20.0396 12.9135 19.799 12.6001 19.7999H8.40005C8.0687 19.7999 7.80005 20.0686 7.80005 20.3999C7.80005 20.7313 8.0687 20.9999 8.40005 20.9999H12.0001V21.5999C12.0006 21.8308 12.1336 22.0405 12.3419 22.1399Z" fill="white"/>
<path d="M7.79998 3.6C7.79998 3.93135 7.53132 4.2 7.19998 4.2C6.86863 4.2 6.59998 3.93135 6.59998 3.6C6.59998 3.26865 6.86863 3 7.19998 3C7.53132 3 7.79998 3.26865 7.79998 3.6Z" fill="white"/>
<path d="M10.2 3.6C10.2 3.93135 9.93135 4.2 9.6 4.2C9.26865 4.2 9 3.93135 9 3.6C9 3.26865 9.26865 3 9.6 3C9.93135 3 10.2 3.26865 10.2 3.6Z" fill="white"/>
<path d="M19.8 7.79995C19.8 7.4686 19.5313 7.19995 19.2 7.19995H15.6C15.2687 7.19995 15 7.4686 15 7.79995C15 8.1313 15.2687 8.39995 15.6 8.39995H19.2C19.5313 8.39995 19.8 8.1313 19.8 7.79995Z" fill="white"/>
<path d="M13.8 25.2H17.9999C18.3313 25.2 18.5999 24.9313 18.5999 24.6C18.5999 24.2687 18.3313 24 17.9999 24H13.8C13.4686 24 13.2 24.2687 13.2 24.6C13.2 24.9313 13.4686 25.2 13.8 25.2Z" fill="white"/>
</svg>
