<svg width="30" height="30" viewBox="0 0 30 30" fill="none" xmlns="http://www.w3.org/2000/svg">
<g clip-path="url(#clip0)">
<path d="M15.7473 3L5 9.66667V20.6667L16.7473 27L27 21.6V9.66667L15.7473 3Z" fill="black"/>
<path d="M15.0385 29.9414L2.05078 22.4412V7.44141L15.0385 -0.0585938L28.0259 7.44141V22.4412L15.0385 29.9414ZM3.80974 21.4259L15.0385 27.9101L26.2669 21.4259V8.45695L15.0385 1.97273L3.80974 8.45695V21.4259Z" fill="white"/>
<path d="M8.77948 18.5495L5.17139 14.9414L8.77948 11.3331L10.0235 12.5771L7.65888 14.9414L10.0235 17.3058L8.77948 18.5495Z" fill="white"/>
<path d="M21.2975 18.5495L20.0537 17.3058L22.4181 14.9414L20.0537 12.5771L21.2975 11.3331L24.9058 14.9414L21.2975 18.5495Z" fill="white"/>
<path d="M16.3216 10.4073L17.8947 11.1937L13.7545 19.4744L12.1812 18.6878L16.3216 10.4073Z" fill="white"/>
</g>
<defs>
<clipPath id="clip0">
<rect width="30" height="30" fill="white"/>
</clipPath>
</defs>
</svg>
