<svg width="34" height="34" viewBox="0 0 34 34" fill="none" xmlns="http://www.w3.org/2000/svg">
<path d="M2.70873 14.1667H5.57153C6.03167 14.1667 6.41077 13.9134 6.587 13.4884C6.76323 13.0634 6.6737 12.6157 6.349 12.2904L4.32487 10.2669C4.02736 9.96936 3.8636 9.57326 3.8636 9.15279C3.8636 8.73176 4.02736 8.33623 4.32487 8.03816L6.9049 5.45813C7.4999 4.86313 8.53746 4.862 9.1336 5.45813L11.1572 7.4817C11.4824 7.8064 11.9312 7.89706 12.3551 7.72026C12.7801 7.54403 13.0334 7.16493 13.0334 6.70479V3.842C13.0334 2.9733 13.74 2.26666 14.6087 2.26666H18.2581C19.1268 2.26666 19.8334 2.9733 19.8334 3.842V6.70479C19.8334 7.16493 20.0867 7.54403 20.5117 7.72026C20.9356 7.89763 21.3844 7.8064 21.7096 7.4817L23.7332 5.45813C24.3293 4.862 25.3669 4.86313 25.9619 5.45813L28.5419 8.03816C28.8394 8.33566 29.0032 8.73176 29.0032 9.15279C29.0032 9.57326 28.8394 9.96879 28.5419 10.2669L26.5178 12.2904C26.1931 12.6157 26.1041 13.0634 26.2798 13.4884C26.4555 13.9134 26.8351 14.1667 27.2953 14.1667H30.1581C31.0268 14.1667 31.7334 14.8733 31.7334 15.742V19.3908C31.7334 20.26 31.0268 20.9667 30.1581 20.9667H27.2953C26.8351 20.9667 26.456 21.22 26.2798 21.645C26.1036 22.07 26.1931 22.5176 26.5178 22.8429L28.5419 24.8665C28.8394 25.164 29.0032 25.5601 29.0032 25.9805C29.0032 26.4016 28.8394 26.7971 28.5419 27.0952L25.9619 29.6752C25.3663 30.2708 24.3293 30.2719 23.7332 29.6752L21.7096 27.6511C21.3844 27.3264 20.9373 27.2368 20.5117 27.4131C20.0867 27.5893 19.8334 27.9684 19.8334 28.4285V31.2913C19.8334 32.16 19.1268 32.8667 18.2581 32.8667H14.6093C13.7406 32.8667 13.034 32.16 13.034 31.2913V28.4285C13.034 27.9684 12.7807 27.5893 12.3557 27.4131C11.9301 27.2363 11.483 27.3264 11.1577 27.6511L9.13416 29.6752C8.53803 30.2713 7.50047 30.2702 6.90547 29.6752L4.32543 27.0952C4.02793 26.7977 3.86417 26.4016 3.86417 25.9805C3.86417 25.5601 4.02793 25.1645 4.32543 24.8665L6.34957 22.8429C6.67427 22.5176 6.76323 22.07 6.58757 21.645C6.4119 21.22 6.03167 20.9667 5.57153 20.9667H2.70873C1.84003 20.9667 1.1334 20.26 1.1334 19.3913V15.742C1.1334 14.8733 1.84003 14.1667 2.70873 14.1667Z" fill="black"/>
<path d="M1.75037 13.2222H4.93126C5.44252 13.2222 5.86374 12.9408 6.05956 12.4686C6.25537 11.9963 6.15589 11.4989 5.79511 11.1375L3.54608 8.88911C3.21552 8.55855 3.03356 8.11844 3.03356 7.65126C3.03356 7.18344 3.21552 6.74396 3.54608 6.41278L6.41278 3.54607C7.07389 2.88496 8.22674 2.8837 8.88911 3.54607L11.1375 5.79448C11.4989 6.15526 11.9976 6.256 12.4686 6.05956C12.9408 5.86374 13.2222 5.44252 13.2222 4.93126V1.75037C13.2222 0.785148 14.0074 0 14.9726 0H19.0274C19.9926 0 20.7778 0.785148 20.7778 1.75037V4.93126C20.7778 5.44252 21.0592 5.86374 21.5314 6.05956C22.0024 6.25663 22.5011 6.15526 22.8625 5.79448L25.1109 3.54607C25.7733 2.8837 26.9261 2.88496 27.5872 3.54607L30.4539 6.41278C30.7845 6.74333 30.9664 7.18344 30.9664 7.65126C30.9664 8.11844 30.7845 8.55793 30.4539 8.88911L28.2049 11.1375C27.8441 11.4989 27.7453 11.9963 27.9404 12.4686C28.1356 12.9408 28.5575 13.2222 29.0687 13.2222H32.2496C33.2149 13.2222 34 14.0074 34 14.9726V19.0268C34 19.9926 33.2149 20.7778 32.2496 20.7778H29.0687C28.5575 20.7778 28.1363 21.0592 27.9404 21.5314C27.7446 22.0037 27.8441 22.5011 28.2049 22.8625L30.4539 25.1109C30.7845 25.4414 30.9664 25.8816 30.9664 26.3487C30.9664 26.8166 30.7845 27.256 30.4539 27.5872L27.5872 30.4539C26.9255 31.1157 25.7733 31.1169 25.1109 30.4539L22.8625 28.2049C22.5011 27.8441 22.0043 27.7446 21.5314 27.9404C21.0592 28.1363 20.7778 28.5575 20.7778 29.0687V32.2496C20.7778 33.2149 19.9926 34 19.0274 34H14.9732C14.008 34 13.2229 33.2149 13.2229 32.2496V29.0687C13.2229 28.5575 12.9414 28.1363 12.4692 27.9404C11.9963 27.744 11.4996 27.8441 11.1381 28.2049L8.88974 30.4539C8.22737 31.1163 7.07452 31.115 6.41341 30.4539L3.54671 27.5872C3.21615 27.2567 3.03419 26.8166 3.03419 26.3487C3.03419 25.8816 3.21615 25.4421 3.54671 25.1109L5.79574 22.8625C6.15652 22.5011 6.25537 22.0037 6.06019 21.5314C5.865 21.0592 5.44252 20.7778 4.93126 20.7778H1.75037C0.785149 20.7778 0 19.9926 0 19.0274V14.9726C0 14.0074 0.785149 13.2222 1.75037 13.2222ZM1.25926 19.0274C1.25926 19.2981 1.47963 19.5185 1.75037 19.5185H4.93126C5.95378 19.5185 6.83211 20.1053 7.22311 21.0498C7.61474 21.9942 7.40885 23.0306 6.68541 23.7534L4.43637 26.0018C4.24434 26.1939 4.24434 26.5055 4.43637 26.6969L7.30308 29.5636C7.49448 29.755 7.80615 29.7563 7.99819 29.5636L10.2466 27.3146C10.97 26.5911 12.0058 26.3865 12.9502 26.7769C13.8947 27.1679 14.4815 28.0462 14.4815 29.0687V32.2496C14.4815 32.5204 14.7019 32.7407 14.9726 32.7407H19.0274C19.2981 32.7407 19.5185 32.5204 19.5185 32.2496V29.0687C19.5185 28.0462 20.1053 27.1679 21.0498 26.7769C21.3665 26.6453 21.6926 26.5811 22.015 26.5811C22.6534 26.5811 23.2724 26.8329 23.7534 27.314L26.0018 29.563C26.1945 29.7557 26.5061 29.7544 26.6969 29.563L29.5636 26.6963C29.7557 26.5043 29.7557 26.1926 29.5636 26.0012L27.3146 23.7528C26.5918 23.03 26.3853 21.9936 26.7769 21.0491C27.1679 20.1053 28.0462 19.5185 29.0687 19.5185H32.2496C32.5204 19.5185 32.7407 19.2981 32.7407 19.0274V14.9726C32.7407 14.7019 32.5204 14.4815 32.2496 14.4815H29.0687C28.0462 14.4815 27.1679 13.8947 26.7769 12.9502C26.3853 12.0058 26.5911 10.9694 27.3146 10.2466L29.5636 7.99818C29.7557 7.80615 29.7557 7.49448 29.5636 7.30307L26.6969 4.43637C26.5055 4.24433 26.1939 4.24433 26.0018 4.43637L23.7534 6.68478C23.0312 7.40696 21.9955 7.61411 21.0498 7.22248C20.1053 6.83211 19.5185 5.95378 19.5185 4.93126V1.75037C19.5185 1.47963 19.2981 1.25926 19.0274 1.25926H14.9732C14.7019 1.25926 14.4815 1.47963 14.4815 1.75037V4.93126C14.4815 5.95378 13.8947 6.83211 12.9502 7.22311C12.0045 7.61474 10.9694 7.40822 10.2466 6.68541L7.99819 4.437C7.80552 4.24496 7.49385 4.24496 7.30308 4.437L4.43637 7.3037C4.24434 7.49574 4.24434 7.80741 4.43637 7.99881L6.68541 10.2472C7.40822 10.97 7.61474 12.0064 7.22311 12.9509C6.83211 13.8953 5.95378 14.4821 4.93126 14.4821H1.75037C1.47963 14.4815 1.25926 14.7019 1.25926 14.9726V19.0274Z" fill="white"/>
<mask id="path-3-inside-1" fill="white">
<path d="M17.0002 7.93332C22 7.93332 26.0669 12.0002 26.0669 17C26.0669 21.9997 22 26.0667 17.0002 26.0667C12.0005 26.0667 7.93356 21.9997 7.93356 17C7.93356 12.0002 12.0005 7.93332 17.0002 7.93332ZM17.0002 24.0518C20.8878 24.0518 24.0521 20.8876 24.0521 17C24.0521 13.1124 20.8878 9.94813 17.0002 9.94813C13.1126 9.94813 9.94838 13.1124 9.94838 17C9.94838 20.8876 13.1126 24.0518 17.0002 24.0518Z"/>
</mask>
<path d="M17.0002 7.93332C22 7.93332 26.0669 12.0002 26.0669 17C26.0669 21.9997 22 26.0667 17.0002 26.0667C12.0005 26.0667 7.93356 21.9997 7.93356 17C7.93356 12.0002 12.0005 7.93332 17.0002 7.93332ZM17.0002 24.0518C20.8878 24.0518 24.0521 20.8876 24.0521 17C24.0521 13.1124 20.8878 9.94813 17.0002 9.94813C13.1126 9.94813 9.94838 13.1124 9.94838 17C9.94838 20.8876 13.1126 24.0518 17.0002 24.0518Z" fill="black"/>
<path d="M17.0002 4.93332C23.6568 4.93332 29.0669 10.3434 29.0669 17H23.0669C23.0669 13.6571 20.3431 10.9333 17.0002 10.9333V4.93332ZM29.0669 17C29.0669 23.6566 23.6568 29.0667 17.0002 29.0667V23.0667C20.3431 23.0667 23.0669 20.3429 23.0669 17H29.0669ZM17.0002 29.0667C10.3436 29.0667 4.93356 23.6566 4.93356 17H10.9336C10.9336 20.3429 13.6573 23.0667 17.0002 23.0667V29.0667ZM4.93356 17C4.93356 10.3434 10.3436 4.93332 17.0002 4.93332V10.9333C13.6573 10.9333 10.9336 13.6571 10.9336 17H4.93356ZM17.0002 21.0518C19.231 21.0518 21.0521 19.2307 21.0521 17H27.0521C27.0521 22.5444 22.5447 27.0518 17.0002 27.0518V21.0518ZM21.0521 17C21.0521 14.7693 19.231 12.9481 17.0002 12.9481V6.94813C22.5447 6.94813 27.0521 11.4555 27.0521 17H21.0521ZM17.0002 12.9481C14.7695 12.9481 12.9484 14.7693 12.9484 17H6.94838C6.94838 11.4555 11.4558 6.94813 17.0002 6.94813V12.9481ZM12.9484 17C12.9484 19.2307 14.7695 21.0518 17.0002 21.0518V27.0518C11.4558 27.0518 6.94838 22.5444 6.94838 17H12.9484Z" fill="white" mask="url(#path-3-inside-1)"/>
<circle r="7.93333" transform="matrix(-1 0 0 1 16.9998 17)" fill="black"/>
<path d="M18.4515 19.6043C18.4225 19.6874 18.408 19.7641 18.408 19.8344C18.408 20.0006 18.4573 20.138 18.556 20.2466C18.6548 20.3489 18.768 20.4 18.8958 20.4C19.0003 20.4 19.0961 20.3649 19.1832 20.2946C19.2645 20.2242 19.3284 20.1284 19.3748 20.0069L19.8278 18.8469H22.4235L22.8765 20.0165C22.9171 20.138 22.981 20.2338 23.0681 20.3041C23.1494 20.368 23.2394 20.4 23.3381 20.4C23.4891 20.4 23.6053 20.3553 23.6866 20.2658C23.7621 20.1763 23.7998 20.0549 23.7998 19.9015C23.7998 19.844 23.7911 19.7833 23.7737 19.7193L21.6047 13.9864C21.5583 13.8586 21.4886 13.7595 21.3957 13.6892C21.3028 13.6189 21.1982 13.5902 21.0821 13.603C20.9776 13.603 20.8818 13.6381 20.7947 13.7084C20.7017 13.7723 20.635 13.865 20.5943 13.9864L18.4515 19.6043ZM21.9967 17.7445H20.2546L21.1344 15.5011L21.9967 17.7445Z" fill="black"/>
<path d="M15.1531 13.6413C14.8569 13.6413 14.5753 13.7404 14.3081 13.9385C14.041 14.1302 13.8262 14.3923 13.6636 14.7246C13.501 15.0506 13.4197 15.4085 13.4197 15.7983C13.4197 16.1818 13.501 16.5397 13.6636 16.8721C13.8262 17.2044 14.041 17.4696 14.3081 17.6678C14.5753 17.8595 14.8569 17.9554 15.1531 17.9554H16.6687V19.7673C16.6687 19.9398 16.7152 20.0804 16.8081 20.1891C16.901 20.2977 17.0229 20.3521 17.1739 20.3521C17.3191 20.3521 17.4381 20.2977 17.5311 20.1891C17.624 20.0741 17.6704 19.9334 17.6704 19.7673V14.2261C17.6704 14.0599 17.6211 13.9225 17.5223 13.8139C17.4178 13.6988 17.2901 13.6413 17.1391 13.6413H15.1531ZM15.1531 16.8625C15.0427 16.8625 14.9353 16.8113 14.8308 16.7091C14.7204 16.6068 14.6333 16.4758 14.5695 16.316C14.4998 16.1499 14.4649 15.9773 14.4649 15.7983C14.4649 15.6194 14.4998 15.45 14.5695 15.2902C14.6333 15.1241 14.7204 14.993 14.8308 14.8972C14.9353 14.7949 15.0427 14.7438 15.1531 14.7438H16.6687V16.8625H15.1531Z" fill="black"/>
<path d="M11.3331 19.7673C11.3331 19.9334 11.3883 20.0741 11.4986 20.1891C11.609 20.2977 11.7367 20.3521 11.8819 20.3521C12.0387 20.3521 12.1694 20.2977 12.2739 20.1891C12.3726 20.0741 12.422 19.9334 12.422 19.7673V14.2261C12.422 14.0599 12.3697 13.9225 12.2652 13.8139C12.1606 13.6988 12.0271 13.6413 11.8645 13.6413C11.7193 13.6413 11.5945 13.6988 11.4899 13.8139C11.3854 13.9225 11.3331 14.0599 11.3331 14.2261V19.7673Z" fill="black"/>
<path d="M15.7191 19.2979C15.7447 19.3712 15.7575 19.4389 15.7575 19.5009C15.7575 19.6475 15.714 19.7688 15.6269 19.8647C15.5397 19.9549 15.4398 20 15.3271 20C15.2349 20 15.1503 19.969 15.0735 19.907C15.0017 19.8449 14.9454 19.7603 14.9044 19.6532L14.5047 18.6296H12.2144L11.8147 19.6616C11.7788 19.7688 11.7225 19.8534 11.6456 19.9154C11.5739 19.9718 11.4945 20 11.4073 20C11.2741 20 11.1716 19.9605 11.0999 19.8816C11.0333 19.8026 11 19.6955 11 19.5601C11 19.5094 11.0077 19.4558 11.0231 19.3994L12.9368 14.341C12.9778 14.2282 13.0393 14.1408 13.1213 14.0787C13.2033 14.0167 13.2955 13.9913 13.398 14.0026C13.4902 14.0026 13.5747 14.0336 13.6516 14.0957C13.7336 14.152 13.7925 14.2338 13.8284 14.341L15.7191 19.2979ZM12.591 17.6569H14.1281L13.3519 15.6775L12.591 17.6569Z" fill="white"/>
<path d="M18.6295 14.0364C18.8908 14.0364 19.1393 14.1238 19.375 14.2987C19.6107 14.4678 19.8003 14.6991 19.9437 14.9923C20.0872 15.2799 20.159 15.5957 20.159 15.9397C20.159 16.2781 20.0872 16.5939 19.9437 16.8871C19.8003 17.1803 19.6107 17.4144 19.375 17.5892C19.1393 17.7584 18.8908 17.843 18.6295 17.843H17.2921V19.4417C17.2921 19.594 17.2512 19.718 17.1692 19.8139C17.0872 19.9098 16.9796 19.9577 16.8464 19.9577C16.7183 19.9577 16.6132 19.9098 16.5313 19.8139C16.4493 19.7124 16.4083 19.5883 16.4083 19.4417V14.5524C16.4083 14.4058 16.4518 14.2846 16.5389 14.1887C16.6312 14.0872 16.7439 14.0364 16.8771 14.0364H18.6295ZM18.6295 16.8786C18.7268 16.8786 18.8216 16.8335 18.9139 16.7433C19.0112 16.6531 19.0881 16.5375 19.1444 16.3965C19.2059 16.2499 19.2367 16.0976 19.2367 15.9397C19.2367 15.7818 19.2059 15.6324 19.1444 15.4914C19.0881 15.3448 19.0112 15.2292 18.9139 15.1446C18.8216 15.0543 18.7268 15.0092 18.6295 15.0092H17.2921V16.8786H18.6295Z" fill="white"/>
<path d="M22 19.4417C22 19.5883 21.9513 19.7124 21.854 19.8139C21.7566 19.9098 21.6439 19.9577 21.5158 19.9577C21.3775 19.9577 21.2622 19.9098 21.1699 19.8139C21.0828 19.7124 21.0393 19.5883 21.0393 19.4417V14.5524C21.0393 14.4058 21.0854 14.2846 21.1776 14.1887C21.2698 14.0872 21.3877 14.0364 21.5312 14.0364C21.6593 14.0364 21.7694 14.0872 21.8617 14.1887C21.9539 14.2846 22 14.4058 22 14.5524V19.4417Z" fill="white"/>
</svg>
