<svg width="33" height="33" viewBox="0 0 33 33" fill="none" xmlns="http://www.w3.org/2000/svg">
<g clip-path="url(#clip0)">
<path d="M11.9997 2H31.9997L32.9999 20H9.99972C10 19.5434 10 17.8357 9.99963 16.7812C9.99959 16.6811 9.99955 16.5867 9.99951 16.5C9.99955 16.5 9.99959 16.4999 9.99964 16.4999L9.99981 10.7189C9.99981 10.7188 9.99981 10.7188 9.99981 10.7188V4C12.8331 6.16667 20.5 11.1875 20.5 11.1875C20.5 11.1875 27.5 6 28.5 5L27 3L20.5 8L11.9997 2Z" fill="black"/>
<path d="M5.00006 6.99999C4.20006 6.59999 2.33339 7.83332 1.50006 8.49999C-3.99994 17.5 15 33.0001 21.0001 31.5C23.9998 30.75 25.0001 29 25.0001 27.5C25.0001 26 19.0001 23 18.5001 23C18.0001 23 17.0001 24.5 16.0001 25.5C15.0001 26.5 7.00006 18 6.50006 16.5C6.00006 15 8.00006 14.5 9.00006 13.5C10.0001 12.5 6.00006 7.49999 5.00006 6.99999Z" fill="black"/>
<path d="M31.5971 0.82605H8.54645C7.77205 0.826952 7.14451 1.45449 7.14361 2.2289V8.58683L6.08954 7.00572C5.60706 6.27793 4.63673 6.05958 3.88902 6.5106L1.72041 7.81442C1.01022 8.23115 0.489248 8.90691 0.266959 9.69975C-0.52414 12.5803 0.0628508 17.5431 7.3472 24.8285C13.1401 30.6154 17.4592 32.1739 20.436 32.1739C21.1251 32.1771 21.8117 32.0875 22.477 31.9076C23.2695 31.6854 23.9453 31.1651 24.3628 30.4559L25.665 28.285C26.1142 27.5379 25.896 26.5695 25.1698 26.0872L19.9771 22.6257C19.2648 22.1546 18.31 22.3095 17.7832 22.9817L16.2714 24.9253C16.1134 25.1332 15.8267 25.1938 15.598 25.0677L15.3103 24.9093C14.3635 24.3933 13.1851 23.7507 10.8053 21.3708C10.5478 21.1133 10.3145 20.8724 10.0956 20.6419H31.5971C32.3696 20.6425 32.9969 20.0181 32.9999 19.2456V2.2289C32.999 1.45449 32.3715 0.826952 31.5971 0.82605ZM14.7838 25.8754L15.0633 26.0289C15.7658 26.4217 16.6501 26.2395 17.14 25.6009L18.6518 23.6573C18.8237 23.4384 19.1347 23.3879 19.367 23.5412L24.5597 27.0027C24.7956 27.1599 24.8665 27.4746 24.7209 27.7178L23.4187 29.8887C23.1468 30.355 22.705 30.6979 22.1859 30.8459C19.5854 31.5611 15.0342 30.956 8.12663 24.0479C1.2191 17.1399 0.616252 12.5891 1.32973 9.99077C1.47756 9.47173 1.82034 9.02999 2.28639 8.75793L4.45725 7.4552C4.70049 7.30989 5.01504 7.38074 5.17241 7.61637L8.63549 12.8091C8.78905 13.0413 8.73857 13.3526 8.51938 13.5242L6.57519 15.0366C5.93675 15.5263 5.75443 16.4105 6.14718 17.1128L6.30119 17.3923C6.85131 18.4012 7.53513 19.6566 10.0278 22.1487C12.5206 24.6409 13.7755 25.3252 14.7838 25.8754ZM31.8997 19.2457C31.8979 19.4112 31.7626 19.544 31.5972 19.5428H9.10314C8.38863 18.7257 7.7725 17.8276 7.26732 16.8669L7.10886 16.5781C6.9825 16.3499 7.04297 16.0635 7.25082 15.9058L9.19501 14.3935C9.86742 13.8668 10.0223 12.9119 9.55095 12.1995L8.24384 10.2377V2.2289C8.24293 2.14837 8.27452 2.07088 8.33145 2.01396C8.38838 1.95703 8.46587 1.92544 8.54639 1.92634H31.5971C31.6776 1.92544 31.7551 1.95703 31.812 2.01396C31.869 2.07088 31.9005 2.14837 31.8996 2.2289V19.2457H31.8997Z" fill="white" stroke="white" stroke-width="0.65"/>
<path d="M29.7024 3.37323L20.5079 10.3462C20.2478 10.5352 19.8955 10.5352 19.6354 10.3462L10.4444 3.37323C10.2022 3.18955 9.857 3.237 9.6734 3.47915C9.48972 3.72129 9.53717 4.06653 9.77932 4.25013L18.9715 11.2225C19.6255 11.7057 20.518 11.7057 21.172 11.2225L30.367 4.25013C30.4833 4.16194 30.5599 4.03107 30.5797 3.8864C30.5995 3.74173 30.561 3.59513 30.4726 3.47889C30.289 3.2372 29.9443 3.18994 29.7024 3.37323Z" fill="white" stroke="white" stroke-width="0.65"/>
<path d="M15.3771 11.2687L9.74152 17.3038C9.53432 17.526 9.5465 17.8742 9.76873 18.0814C9.99095 18.2886 10.3391 18.2764 10.5464 18.0542L16.182 12.0165C16.3682 11.7918 16.3466 11.4609 16.1328 11.2623C15.9191 11.0637 15.5874 11.0665 15.3771 11.2687Z" fill="white" stroke="white" stroke-width="0.65"/>
<path d="M24.8027 11.2688C24.5955 11.0465 24.2474 11.0343 24.0251 11.2415C23.8029 11.4487 23.7906 11.7969 23.9979 12.0192L29.6318 18.0542C29.839 18.2764 30.1872 18.2887 30.4095 18.0814C30.6317 17.8742 30.6439 17.526 30.4367 17.3038L24.8027 11.2688Z" fill="white" stroke="white" stroke-width="0.65"/>
</g>
<defs>
<clipPath id="clip0">
<rect width="33" height="33" fill="white"/>
</clipPath>
</defs>
</svg>
